PathFileType	4	(X/Y/Z)	C:\Users\Basilio\Documents\Thesis Gigler\squatting_fais\c3dfiles\076\SJ_pre1\markers_experimental.trc
DataRate	CameraRate	NumFrames	NumMarkers	Units	OrigDataRate	OrigDataStartFrame	OrigNumFrames
200.000000	200.000000	4	61	mm	200.000000	0	1226
Frame#	Time	FHD			LBHD			RBHD			C7			T10			CLAV			LSHO			LUUPA			LMUPA			LDUPA			LLEP			LMEP			LRAD			LUL			LRFIN			RSHO			RUPA1			RMUPA			RDUPA			RLEP			RMEP			RRAD			RUL			RUFIN			LASI			RASI			USACR			LSACR			RSACR			LTHI1			LTHI2			LTHI3			LTHI4			LLFC			LMFC			LTIB1			LTIB2			LTIB3			LTIB4			LLMAL			LMMAL			LHEE			LMT1			LMT2			LMT5			RTHI			RTHI2			RTHI3			RTHI4			RLFC			RMFC			RTIB1			RTIB2			RTIB3			RTIB4			RLMAL			RMMAL			RHEE			RMT1			RMT2			RMT5			
		X1	Y1	Z1	X2	Y2	Z2	X3	Y3	Z3	X4	Y4	Z4	X5	Y5	Z5	X6	Y6	Z6	X7	Y7	Z7	X8	Y8	Z8	X9	Y9	Z9	X10	Y10	Z10	X11	Y11	Z11	X12	Y12	Z12	X13	Y13	Z13	X14	Y14	Z14	X15	Y15	Z15	X16	Y16	Z16	X17	Y17	Z17	X18	Y18	Z18	X19	Y19	Z19	X20	Y20	Z20	X21	Y21	Z21	X22	Y22	Z22	X23	Y23	Z23	X24	Y24	Z24	X25	Y25	Z25	X26	Y26	Z26	X27	Y27	Z27	X28	Y28	Z28	X29	Y29	Z29	X30	Y30	Z30	X31	Y31	Z31	X32	Y32	Z32	X33	Y33	Z33	X34	Y34	Z34	X35	Y35	Z35	X36	Y36	Z36	X37	Y37	Z37	X38	Y38	Z38	X39	Y39	Z39	X40	Y40	Z40	X41	Y41	Z41	X42	Y42	Z42	X43	Y43	Z43	X44	Y44	Z44	X45	Y45	Z45	X46	Y46	Z46	X47	Y47	Z47	X48	Y48	Z48	X49	Y49	Z49	X50	Y50	Z50	X51	Y51	Z51	X52	Y52	Z52	X53	Y53	Z53	X54	Y54	Z54	X55	Y55	Z55	X56	Y56	Z56	X57	Y57	Z57	X58	Y58	Z58	X59	Y59	Z59	X60	Y60	Z60	X61	Y61	Z61	

1	0	-208.4227447509766	1611.85595703125	-867.7163085937502	-322.1974792480469	1534.60986328125	-988.3579711914065	-340.3293151855469	1541.758422851563	-837.7183227539065	-381.7228393554688	1419.677368164063	-909.1361083984377	-401.4949951171876	1097.137329101563	-914.6168212890627	-247.0849761962891	1341.731201171875	-899.760681152344	-306.0172424316407	1365.564697265625	-1079.170166015625	-316.5874023437501	1206.984741210938	-1203.5087890625	-301.8323364257813	1163.3994140625	-1183.7451171875	-324.4827270507813	1147.789306640625	-1238.499755859375	-335.6896362304688	1098.345703125	-1265.412475585938	-416.3886108398439	1087.872314453125	-1230.734741210938	-293.4415588378907	935.316589355469	-1079.494018554688	-340.8726806640626	917.8541259765627	-1102.865478515625	-296.4166259765626	887.898376464844	-1138.51513671875	-322.4621887207032	1359.555419921875	-735.7957153320314	-380.6311950683594	1220.494506835938	-604.9921264648439	-350.1702880859376	1180.469360351563	-603.5368652343751	-394.7521057128907	1161.65576171875	-567.3425903320314	-393.6320190429689	1091.03271484375	-546.5083618164064	-461.4302673339845	1080.935791015625	-603.0554199218751	-363.3771362304688	930.0738525390627	-725.3470458984376	-304.9070739746094	944.538513183594	-727.3414916992189	-324.0271911621094	898.7012329101565	-678.9486694335939	-235.8265838623047	909.975769042969	-1014.436218261719	-237.3650054931641	910.4765625000002	-806.650329589844	-401.0659484863282	991.8106689453127	-909.7698364257815	-409.0560607910157	964.614196777344	-938.7043457031252	-408.714324951172	962.2752685546877	-882.4314575195315	-333.2292785644532	769.8945922851565	-1088.579223632813	-315.4246520996094	686.3439941406251	-1094.323364257813	-267.7503662109376	681.4627685546876	-1080.115844726563	-352.7654724121094	638.5519409179689	-1086.621459960938	-372.0086975097657	478.6969604492189	-1074.138061523438	-344.5528564453126	457.8843078613282	-960.7437744140627	-350.1994323730469	326.4132995605469	-1022.367858886719	-370.7799377441407	282.1045532226563	-1095.78125	-344.3762817382813	280.1485900878907	-1057.963134765625	-360.2789611816407	199.7581024169922	-1035.303833007813	-415.2795715332032	82.3377151489258	-1105.536376953125	-392.2642822265626	86.99676513671876	-1022.577331542969	-470.729217529297	43.75638961791993	-1069.235595703125	-261.7046813964844	52.86167907714845	-1042.829345703125	-254.6240844726563	53.8262062072754	-1081.734008789063	-271.0942993164063	42.99740600585938	-1133.225341796875	-350.7540893554688	676.6739501953126	-730.1578979492189	-320.5685729980469	616.4116210937501	-724.7711791992189	-286.5475463867188	615.5318603515626	-731.4503784179689	-355.9590454101563	543.0061645507814	-736.3600463867189	-362.0483093261719	481.3319702148439	-737.8916015625001	-331.7179565429688	465.4126586914064	-851.6206054687502	-331.0626831054688	345.4828796386719	-746.8475341796876	-404.7859497070314	270.4118347167969	-718.1778564453126	-358.6781616210938	264.7007751464844	-726.7288208007814	-345.7768554687501	216.1805419921876	-755.9015502929689	-411.1749267578126	80.41963958740236	-717.5109252929689	-388.0444641113282	88.62722778320314	-799.8162841796877	-466.0938110351564	50.77161026000978	-761.3005981445314	-257.8961791992188	51.9869842529297	-773.0517578125002	-255.9806823730469	55.39871978759767	-727.6594238281251	-283.5218505859376	34.82183456420899	-674.6782226562501	
2	0.005	-207.5029449462891	1611.55419921875	-868.1853637695315	-322.6370849609376	1533.775390625	-987.9124755859377	-339.4100646972657	1541.772094726563	-837.5983886718752	-381.4461059570313	1419.726684570313	-909.243591308594	-401.6279296875001	1097.2470703125	-914.715270996094	-246.8705444335938	1341.688110351563	-899.8925781250002	-305.9082946777344	1365.5517578125	-1079.3076171875	-316.5797119140626	1206.997924804688	-1203.558227539063	-301.8804321289063	1163.370361328125	-1183.81201171875	-324.4443969726563	1147.79736328125	-1238.625732421875	-336.6670837402344	1098.5830078125	-1265.910034179688	-416.5131835937501	1088.062622070313	-1230.86181640625	-293.5720214843751	935.3606567382815	-1079.630615234375	-341.1318664550782	917.9133300781252	-1102.958862304688	-296.6575317382813	887.9432373046877	-1138.615478515625	-322.2104492187501	1359.615600585938	-735.9569091796876	-380.4982299804688	1220.6181640625	-605.0601196289064	-350.0666809082032	1180.588256835938	-603.6578369140626	-394.6267395019532	1161.786010742188	-567.4129638671876	-393.6011657714845	1091.179565429688	-546.5584106445314	-461.4429321289064	1081.051879882813	-603.0046997070314	-363.5068054199219	930.1551513671877	-725.4029541015626	-305.0357666015626	944.543640136719	-727.4454345703126	-324.1429443359376	898.7783203125002	-678.9480590820314	-235.859359741211	910.020935058594	-1014.595031738281	-237.4529876708985	910.4693603515627	-806.7210083007815	-401.1277770996095	991.8778076171877	-909.882263183594	-409.1450195312501	964.660095214844	-938.824890136719	-408.8220825195314	962.3315429687502	-882.5886230468752	-333.3271789550782	769.822937011719	-1088.7412109375	-315.4348754882813	686.3424682617189	-1094.636108398438	-267.7714233398438	681.5037841796876	-1080.291625976563	-352.7597656250001	638.5544433593751	-1086.794921875	-371.8484497070313	478.6306152343751	-1074.247314453125	-344.3305969238282	457.8865661621095	-960.8444824218752	-349.9911804199219	326.3217163085938	-1022.447692871094	-370.6489562988282	282.0404052734376	-1095.774536132813	-344.2452697753907	280.1004028320313	-1058.068725585938	-360.5681457519532	199.8210144042969	-1035.568115234375	-415.3143920898439	82.30126190185548	-1105.525512695313	-392.2416381835939	86.97554016113283	-1022.599853515625	-470.7207336425782	43.77952194213868	-1069.235595703125	-261.7042846679688	52.86327743530275	-1042.827880859375	-254.7065429687501	53.81507873535158	-1081.733032226563	-271.1206665039063	42.97335433959962	-1133.209716796875	-350.8202514648438	676.6685180664064	-730.2655639648439	-320.5957336425782	616.3981323242189	-724.8268432617189	-286.6146850585938	615.5872802734376	-731.4486083984376	-355.9345397949219	543.0029296875001	-736.4282226562501	-361.9781799316407	481.3195800781251	-737.9757690429689	-331.5025939941407	465.3470153808595	-851.607849121094	-330.9623107910157	345.4655456542969	-746.8710937500001	-404.6867980957032	270.4004211425782	-718.2335205078126	-358.6143188476563	264.6970520019532	-726.7442626953126	-345.7089538574219	216.1200561523438	-755.9053344726564	-411.1714477539064	80.40083312988283	-717.5300903320314	-388.0327758789064	88.56074523925783	-799.8264160156252	-466.0703430175782	50.76587677001955	-761.3066406250001	-257.8995971679688	52.03141021728517	-773.0547485351565	-256.0131835937501	55.39298629760744	-727.6724243164064	-283.5137939453126	34.83500671386719	-674.6412353515626	
3	0.01	-206.5035400390626	1611.284423828125	-868.6007080078127	-322.4376220703126	1533.83642578125	-987.7977294921877	-338.4541320800782	1541.927490234375	-837.458923339844	-381.1506958007813	1419.79833984375	-909.373229980469	-401.6877746582032	1097.32080078125	-914.8009033203127	-246.6953125000001	1341.621948242188	-900.091003417969	-305.6942749023438	1365.546264648438	-1079.43212890625	-316.5545959472657	1206.97900390625	-1203.676879882813	-301.9134521484376	1163.344360351563	-1183.950927734375	-324.4684448242188	1147.806396484375	-1238.739868164063	-336.7110595703126	1098.588745117188	-1265.983642578125	-416.5881958007814	1088.156860351563	-1231.01904296875	-293.8390808105469	935.4116821289065	-1079.67724609375	-341.4057617187501	917.949645996094	-1103.012573242188	-296.9038696289063	888.0313110351565	-1138.719482421875	-322.0455017089844	1359.639404296875	-736.0686645507814	-380.3428039550782	1220.762084960938	-605.1307983398439	-349.9306640625001	1180.679565429688	-603.7506103515626	-394.5523986816407	1161.917358398438	-567.5148315429689	-393.476776123047	1091.341186523438	-546.5650634765626	-461.4217224121095	1081.247802734375	-602.9954223632814	-363.6588745117188	930.2495117187502	-725.4855346679689	-305.1417236328126	944.5898437500002	-727.5156250000001	-324.2980651855469	898.8574218750002	-679.0198364257814	-236.8651275634766	910.3681640625002	-1014.983703613281	-237.6264038085938	910.4659423828127	-806.839538574219	-401.2822875976564	991.9144287109377	-910.0249023437502	-409.295135498047	964.7175292968752	-939.0246582031252	-408.9768066406251	962.3491821289065	-882.7185058593752	-333.4021301269532	769.9057617187502	-1089.02392578125	-315.5331420898438	686.2905883789064	-1094.682250976563	-267.8451232910157	681.5546264648439	-1080.481689453125	-352.7541503906251	638.5385131835939	-1086.9765625	-371.6424865722657	478.5667724609376	-1074.3505859375	-344.0362854003907	457.8438415527345	-960.945251464844	-349.6915893554688	326.2781372070313	-1022.534545898438	-370.5077514648438	281.9163818359376	-1095.829223632813	-344.0546875000001	280.0476684570313	-1058.16943359375	-360.0721740722657	199.6057891845704	-1035.379272460938	-415.3484497070314	82.29605102539064	-1105.544189453125	-392.2374877929689	86.97942352294923	-1022.579284667969	-470.7385253906251	43.77402877807618	-1069.255859375	-261.7042541503907	52.84787750244142	-1042.835205078125	-254.7039794921876	53.78268814086915	-1081.753540039063	-271.1455688476563	42.94966506958009	-1133.213623046875	-350.9375000000001	676.6489868164064	-730.4130249023439	-320.6640319824219	616.4542236328126	-724.8192749023439	-286.6756591796876	615.5815429687501	-731.4591064453126	-355.9424743652344	542.9750976562501	-736.4737548828126	-361.9217224121094	481.3076477050782	-738.0617065429689	-331.2695007324219	465.2268676757814	-851.6907348632815	-330.8810119628907	345.4053344726563	-746.8873291015626	-404.6168518066407	270.3776550292969	-718.2831420898439	-358.5375061035157	264.6698913574219	-726.7550659179689	-345.6490478515626	216.0873718261719	-755.9154052734376	-411.1902770996095	80.42285919189455	-717.5467529296876	-388.0357666015626	88.54562377929689	-799.847351074219	-466.0552673339845	50.81863021850587	-761.3376464843751	-257.9451599121094	52.01411819458009	-773.0950317382815	-256.0122375488282	55.39355468750001	-727.6719360351564	-283.5060424804688	34.83102035522462	-674.6544189453126	
4	0.015	-205.5984191894532	1611.100952148438	-868.8974609375002	-322.2734680175782	1533.93896484375	-987.7500000000002	-337.5884399414063	1541.959228515625	-837.3928222656252	-380.8538208007813	1419.891479492188	-909.4722900390627	-401.7196655273439	1097.423828125	-914.8708496093752	-246.4877471923829	1341.52978515625	-900.2414550781252	-305.5395507812501	1365.547607421875	-1079.55615234375	-316.5468139648438	1207.02734375	-1203.789916992188	-301.9180603027344	1163.359619140625	-1184.002075195313	-324.4851074218751	1147.849365234375	-1238.802612304688	-336.8189697265626	1098.652099609375	-1266.0751953125	-416.6724853515626	1088.239990234375	-1231.136108398438	-294.0235900878907	935.4019165039065	-1079.8212890625	-341.7440185546876	917.988220214844	-1103.109130859375	-297.0911254882813	888.0955810546877	-1138.857177734375	-321.8347473144532	1359.687255859375	-736.2399902343751	-380.2409057617188	1220.885986328125	-605.2421875000001	-349.8110656738282	1180.769287109375	-603.8724975585939	-394.4374389648439	1162.029663085938	-567.6040649414064	-393.4127502441407	1091.47998046875	-546.6483154296876	-461.4025268554689	1081.447265625	-603.0329589843751	-363.8399047851563	930.3150634765627	-725.5609741210939	-305.2480163574219	944.6287231445315	-727.6613769531251	-324.3590393066407	898.9544677734377	-679.0643310546876	-236.9116363525391	910.418395996094	-1015.105895996094	-237.7489624023438	910.4468994140627	-806.9581298828127	-401.4213867187501	991.971130371094	-910.0903930664065	-409.4353942871095	964.7680664062502	-939.1395263671877	-409.1471557617189	962.4105224609377	-882.8309326171877	-333.5337219238282	769.8582763671877	-1089.286499023438	-315.5796813964844	686.3214111328126	-1094.9462890625	-268.7869873046876	681.7537841796876	-1081.0791015625	-352.7835693359376	638.4483032226564	-1087.071655273438	-371.3868103027344	478.5215759277345	-1074.453002929688	-343.7225952148438	457.8437805175782	-961.0512695312502	-349.4307250976563	326.2280273437501	-1022.664001464844	-370.3400878906251	281.8277893066407	-1095.877563476563	-343.8468322753907	279.9607238769532	-1058.245239257813	-360.3594665527344	199.6631622314454	-1035.702026367188	-415.3287658691407	82.26943206787111	-1105.533813476563	-392.2142944335939	86.94385528564455	-1022.589477539063	-470.7377929687501	43.74487304687501	-1069.2216796875	-261.6950988769532	52.86728668212892	-1042.841918945313	-254.734603881836	53.80073165893556	-1081.7490234375	-271.1461486816407	42.92930603027344	-1133.241088867188	-351.0352172851563	676.6403198242189	-730.5176391601564	-320.7423400878907	616.4492187500001	-724.8590087890626	-286.7578430175782	615.6559448242189	-731.4398803710939	-355.9685974121094	542.9544677734376	-736.5516357421876	-361.8297119140626	481.2598571777345	-738.1121215820314	-331.0927124023438	465.1533508300782	-851.667419433594	-330.7238464355469	345.3534851074219	-746.9317016601564	-404.5752868652345	270.3356018066407	-718.3287963867189	-358.4859619140626	264.6343994140626	-726.8008422851564	-345.6033325195313	216.0561218261719	-755.9091186523439	-411.2033691406251	80.42588806152345	-717.5743408203126	-388.0083007812501	88.56106567382814	-799.8499755859377	-466.0921020507814	50.80967712402345	-761.3575439453126	-257.9220581054688	52.01551055908205	-773.0698852539065	-256.0032348632813	55.39889526367189	-727.6733398437501	-283.5401306152344	34.81541442871094	-674.6535034179689	
